HIERARCHY
ROOT Hips
{
  OFFSET 5.72205e-005 65.662 3.42586
  CHANNELS 6 Xposition Yposition Zposition Zrotation Xrotation Yrotation
  JOINT Chest
  {
    OFFSET 0 8.7983 -4.7612
    CHANNELS 3 Zrotation Xrotation Yrotation
    JOINT Chest2
    {
      OFFSET 0 8.0291 0.4195
      CHANNELS 3 Zrotation Xrotation Yrotation
      JOINT Chest3
      {
        OFFSET 0 9.9351 -2.2114
        CHANNELS 3 Zrotation Xrotation Yrotation
        JOINT Neck
        {
          OFFSET 0 22.3885 -0.4656
          CHANNELS 3 Zrotation Xrotation Yrotation
          JOINT Head
          {
            OFFSET -0.0001 12.643 3.4389
            CHANNELS 3 Zrotation Xrotation Yrotation
            End Site
            {
              OFFSET 0.0001 17.6655 0.5274
            }
          }
        }
        JOINT LeftCollar
        {
          OFFSET 2.2603 21.606 7.4023
          CHANNELS 3 Zrotation Xrotation Yrotation
          JOINT LeftShoulder
          {
            OFFSET 13.5163 -1.1332 -5.0146
            CHANNELS 3 Zrotation Xrotation Yrotation
            JOINT LeftElbow
            {
              OFFSET -0.0995 -28.05 -0.2431
              CHANNELS 3 Zrotation Xrotation Yrotation
              JOINT LeftWrist
              {
                OFFSET 0.0679 -23.3996 -0.1402
                CHANNELS 3 Zrotation Xrotation Yrotation
                JOINT LeftFinger1
                {
                  OFFSET 0.7932 -9.069 2.5189
                  CHANNELS 3 Zrotation Xrotation Yrotation
                  JOINT LeftFinger11
                  {
                    OFFSET -0.8272 -3.3923 0.5977
                    CHANNELS 3 Zrotation Xrotation Yrotation
                    JOINT LeftFinger12
                    {
                      OFFSET -0.5649 -2.3158 0.4082
                      CHANNELS 3 Zrotation Xrotation Yrotation
                      End Site
                      {
                        OFFSET -0.4919 -1.6479 0.2673
                      }
                    }
                  }
                }
                JOINT LeftFinger2
                {
                  OFFSET 0.9159 -9.2044 0.2193
                  CHANNELS 3 Zrotation Xrotation Yrotation
                  JOINT LeftFinger21
                  {
                    OFFSET 0.0117 -4.1944 -0.0248
                    CHANNELS 3 Zrotation Xrotation Yrotation
                    JOINT LeftFinger22
                    {
                      OFFSET 0.0071 -2.3249 -0.0142
                      CHANNELS 3 Zrotation Xrotation Yrotation
                      End Site
                      {
                        OFFSET -0.1475 -2.0882 0.0028
                      }
                    }
                  }
                }
                JOINT LeftFinger3
                {
                  OFFSET 0.6113 -8.7231 -2.0637
                  CHANNELS 3 Zrotation Xrotation Yrotation
                  JOINT LeftFinger31
                  {
                    OFFSET -0.1927 -3.8059 -0.2383
                    CHANNELS 3 Zrotation Xrotation Yrotation
                    JOINT LeftFinger32
                    {
                      OFFSET -0.1091 -2.1688 -0.1362
                      CHANNELS 3 Zrotation Xrotation Yrotation
                      End Site
                      {
                        OFFSET -0.2358 -1.9176 -0.0906
                      }
                    }
                  }
                }
                JOINT LeftFinger4
                {
                  OFFSET -0.6151 -8.0947 -3.5641
                  CHANNELS 3 Zrotation Xrotation Yrotation
                  JOINT LeftFinger41
                  {
                    OFFSET -0.4882 -2.341 -0.6462
                    CHANNELS 3 Zrotation Xrotation Yrotation
                    JOINT LeftFinger42
                    {
                      OFFSET -0.3575 -1.7167 -0.4742
                      CHANNELS 3 Zrotation Xrotation Yrotation
                      End Site
                      {
                        OFFSET -0.4187 -1.5237 -0.3496
                      }
                    }
                  }
                }
                JOINT LeftFinger0
                {
                  OFFSET -1.42 -1.8761 1.4223
                  CHANNELS 3 Zrotation Xrotation Yrotation
                  JOINT LeftFinger01
                  {
                    OFFSET -1.1471 -3.4929 2.6334
                    CHANNELS 3 Zrotation Xrotation Yrotation
                    JOINT LeftFinger02
                    {
                      OFFSET -0.823 -2.3 1.6571
                      CHANNELS 3 Zrotation Xrotation Yrotation
                      End Site
                      {
                        OFFSET -0.5822 -1.6914 1.1582
                      }
                    }
                  }
                }
              }
            }
          }
        }
        JOINT RightCollar
        {
          OFFSET -2.2603 21.606 7.4023
          CHANNELS 3 Zrotation Xrotation Yrotation
          JOINT RightShoulder
          {
            OFFSET -13.5187 -1.1334 -5.0155
            CHANNELS 3 Zrotation Xrotation Yrotation
            JOINT RightElbow
            {
              OFFSET 0.0994 -28.0499 -0.2431
              CHANNELS 3 Zrotation Xrotation Yrotation
              JOINT RightWrist
              {
                OFFSET -0.0679 -23.3996 -0.1402
                CHANNELS 3 Zrotation Xrotation Yrotation
                JOINT RightFinger1
                {
                  OFFSET -0.7932 -9.0691 2.5189
                  CHANNELS 3 Zrotation Xrotation Yrotation
                  JOINT RightFinger11
                  {
                    OFFSET 0.8272 -3.3923 0.5977
                    CHANNELS 3 Zrotation Xrotation Yrotation
                    JOINT RightFinger12
                    {
                      OFFSET 0.565 -2.3158 0.4082
                      CHANNELS 3 Zrotation Xrotation Yrotation
                      End Site
                      {
                        OFFSET 0.4919 -1.6479 0.2673
                      }
                    }
                  }
                }
                JOINT RightFinger2
                {
                  OFFSET -0.916 -9.2044 0.2193
                  CHANNELS 3 Zrotation Xrotation Yrotation
                  JOINT RightFinger21
                  {
                    OFFSET -0.0117 -4.1944 -0.0248
                    CHANNELS 3 Zrotation Xrotation Yrotation
                    JOINT RightFinger22
                    {
                      OFFSET -0.0071 -2.3249 -0.0142
                      CHANNELS 3 Zrotation Xrotation Yrotation
                      End Site
                      {
                        OFFSET 0.1475 -2.0882 0.0028
                      }
                    }
                  }
                }
                JOINT RightFinger3
                {
                  OFFSET -0.6113 -8.7231 -2.0637
                  CHANNELS 3 Zrotation Xrotation Yrotation
                  JOINT RightFinger31
                  {
                    OFFSET 0.1927 -3.8059 -0.2383
                    CHANNELS 3 Zrotation Xrotation Yrotation
                    JOINT RightFinger32
                    {
                      OFFSET 0.1091 -2.1688 -0.1362
                      CHANNELS 3 Zrotation Xrotation Yrotation
                      End Site
                      {
                        OFFSET 0.2358 -1.9176 -0.0906
                      }
                    }
                  }
                }
                JOINT RightFinger4
                {
                  OFFSET 0.6151 -8.0947 -3.564
                  CHANNELS 3 Zrotation Xrotation Yrotation
                  JOINT RightFinger41
                  {
                    OFFSET 0.4882 -2.341 -0.6462
                    CHANNELS 3 Zrotation Xrotation Yrotation
                    JOINT RightFinger42
                    {
                      OFFSET 0.3574 -1.7166 -0.4742
                      CHANNELS 3 Zrotation Xrotation Yrotation
                      End Site
                      {
                        OFFSET 0.4187 -1.5237 -0.3496
                      }
                    }
                  }
                }
                JOINT RightFinger0
                {
                  OFFSET 1.4199 -1.8761 1.4221
                  CHANNELS 3 Zrotation Xrotation Yrotation
                  JOINT RightFinger01
                  {
                    OFFSET 1.1472 -3.4929 2.6336
                    CHANNELS 3 Zrotation Xrotation Yrotation
                    JOINT RightFinger02
                    {
                      OFFSET 0.8229 -2.3 1.6571
                      CHANNELS 3 Zrotation Xrotation Yrotation
                      End Site
                      {
                        OFFSET 0.5822 -1.6914 1.1582
                      }
                    }
                  }
                }
              }
            }
          }
        }
      }
    }
  }
  JOINT RightHip
  {
    OFFSET -9.412 3.9771 -0.7758
    CHANNELS 3 Zrotation Xrotation Yrotation
    JOINT RightKnee
    {
      OFFSET -0.7531 -40.938 0
      CHANNELS 3 Zrotation Xrotation Yrotation
      JOINT RightAnkle
      {
        OFFSET 0 -40.1986 0
        CHANNELS 3 Zrotation Xrotation Yrotation
        JOINT RightToe
        {
          OFFSET 0 -4.4182 9.239
          CHANNELS 3 Zrotation Xrotation Yrotation
          End Site
          {
            OFFSET 0 0 6.1981
          }
        }
      }
    }
  }
  JOINT LeftHip
  {
    OFFSET 9.4119 3.9773 -0.7758
    CHANNELS 3 Zrotation Xrotation Yrotation
    JOINT LeftKnee
    {
      OFFSET 0.7532 -40.9383 0
      CHANNELS 3 Zrotation Xrotation Yrotation
      JOINT LeftAnkle
      {
        OFFSET 0 -40.1986 0
        CHANNELS 3 Zrotation Xrotation Yrotation
        JOINT LeftToe
        {
          OFFSET 0 -4.4182 9.239
          CHANNELS 3 Zrotation Xrotation Yrotation
          End Site
          {
            OFFSET 0 0 6.1981
          }
        }
      }
    }
  }
}
MOTION
Frames:	6
Frame Time:	0.0333333
0.495481 0.567459 67.5364 -99.5468 -89.9887 -99.5356 0.294644 1.76017 -0.152354 0.594395 3.5195 -0.31399 0.594395 3.5195 -0.31399 1.19289e-005 -1.69525 -6.56042e-006 1.21721e-007 -4.68626 -7.78833e-008 11.8665 -23.957 -22.0331 49.1978 -33.7861 79.1584 -160.49 -47.4551 -140.891 -10.7097 20.4545 8.41608 7.24157e-033 -6.95746e-016 5.96354e-016 -0 -4.96962e-016 -0 4.31046e-034 -9.93923e-017 2.48481e-016 7.24157e-033 -6.95746e-016 5.96354e-016 -0.012834 0.0023225 8.57581e-005 8.27607e-032 1.59028e-015 -2.98177e-015 7.24157e-033 -6.95746e-016 5.96354e-016 -0.0160445 0.00298999 0.00085364 -5.7896e-006 -5.29344e-007 -2.26377e-006 7.24157e-033 -6.95746e-016 5.96354e-016 -0.0125697 0.00312829 0.00282364 -6.36111e-015 -9.93923e-017 -1.68967e-015 7.24157e-033 -6.95746e-016 5.96354e-016 -0 -4.96962e-016 -0 4.31046e-034 -9.93923e-017 2.48481e-016 -12.8543 -23.9227 16.0022 -45.3268 -39.3577 -73.9746 149.388 -63.269 130.149 20.909 14.8499 -10.0482 3.18055e-015 -3.18055e-015 -7.95139e-016 -3.22802e-006 7.94468e-006 2.09865e-007 3.18055e-015 0 -7.95139e-016 3.18055e-015 -3.18055e-015 -7.95139e-016 0.0129363 0.0023286 -8.8868e-005 -3.18055e-015 1.59028e-015 -7.95139e-016 3.18055e-015 -3.18055e-015 -7.95139e-016 0.0163511 0.00305493 -0.000877573 -0 0 1.59028e-015 3.18055e-015 -3.18055e-015 -7.95139e-016 0.0145882 0.00369556 -0.00326229 -3.18055e-015 -1.59028e-015 -0 3.18055e-015 -3.18055e-015 -7.95139e-016 -3.22802e-006 7.94468e-006 2.09865e-007 3.18055e-015 0 -7.95139e-016 -13.6369 -32.9491 -11.56 -130.049 84.912 127.952 0.843528 27.1037 -5.52676 1.78906e-015 7.95139e-016 6.36111e-015 13.632 -32.9489 11.5547 130.051 84.9121 -127.959 -0.845234 27.1031 5.52339 -1.22874e-007 5.20305e-008 -1.63559e-006 
0.495481 0.567459 67.665 -99.5468 -89.9887 -99.5357 0.294882 1.89016 -0.151924 0.595266 3.77951 -0.313843 0.595266 3.77952 -0.313842 -7.06474e-006 -2.37869 3.63104e-006 -2.95334e-007 -5.36969 -9.3031e-008 12.1153 -24.7252 -21.7687 48.8578 -33.9486 79.2544 -160.287 -47.8296 -140.713 -11.5359 18.9071 9.16535 -6.36111e-015 5.96354e-016 -1.78906e-015 -3.18055e-015 3.97569e-016 -9.93923e-016 -6.36111e-015 1.98785e-016 2.98177e-016 -6.36111e-015 5.96354e-016 -1.78906e-015 -0.0128187 0.00233246 8.75085e-005 2.68972e-031 -1.2921e-014 1.19271e-015 -6.36111e-015 5.96354e-016 -1.78906e-015 -0.0160714 0.00300157 0.000851046 3.18055e-015 -5.96354e-016 8.94531e-016 -6.36111e-015 5.96354e-016 -1.78906e-015 -0.0125967 0.00313406 0.00283374 3.18055e-015 -5.96354e-016 8.94531e-016 -6.36111e-015 5.96354e-016 -1.78906e-015 -3.18055e-015 3.97569e-016 -9.93923e-016 -6.36111e-015 1.98785e-016 2.98177e-016 -13.1104 -24.6873 15.732 -45.3586 -39.1529 -73.9728 149.044 -63.5264 129.822 21.7126 13.268 -10.444 0 0 -1.59028e-015 -3.18055e-015 0 -1.59028e-015 -6.36111e-015 0 -7.95139e-016 0 0 -1.59028e-015 0.012972 0.00232813 -9.0428e-005 6.36111e-015 0 -0 0 0 -1.59028e-015 0.0163454 0.00302608 -0.000880011 -0 0 2.38542e-015 0 0 -1.59028e-015 0.0145782 0.00367051 -0.00325404 -3.18055e-015 -3.18055e-015 -0 0 0 -1.59028e-015 -3.18055e-015 0 -1.59028e-015 -6.36111e-015 0 -7.95139e-016 -13.6369 -32.9491 -11.56 -130.049 84.912 127.952 0.84353 27.1037 -5.52676 1.59028e-015 -7.95139e-016 -0 13.632 -32.9489 11.5547 130.051 84.9121 -127.96 -0.845238 27.103 5.5234 -1.08999e-006 -3.69219e-007 -3.24382e-006 
0.495481 0.567459 67.7935 -99.5468 -89.9887 -99.5356 0.295089 2.02038 -0.151484 0.596083 4.03996 -0.313679 0.596081 4.03994 -0.313678 -3.35623e-006 -3.06233 1.71794e-006 3.29433e-007 -6.05349 1.05745e-007 12.3698 -25.4929 -21.4988 48.5185 -34.1106 79.3501 -160.083 -48.2047 -140.531 -12.3365 17.3439 9.88722 -3.18055e-015 0 1.59028e-015 -2.75869e-032 7.95139e-016 1.98785e-015 -0 0 1.59028e-015 -3.18055e-015 0 1.59028e-015 -0.0128207 0.00233047 8.32146e-005 3.18055e-015 3.97569e-016 -1.98785e-016 -3.18055e-015 0 1.59028e-015 -0.016043 0.0029883 0.000866592 1.37935e-033 -3.97569e-016 1.98785e-016 -3.18055e-015 0 1.59028e-015 -0.0125673 0.00310734 0.00281994 6.36111e-015 3.97569e-016 -9.93923e-016 -3.18055e-015 0 1.59028e-015 -2.75869e-032 7.95139e-016 1.98785e-015 -0 0 1.59028e-015 -13.3722 -25.4512 15.4562 -45.3877 -38.9499 -73.9691 148.693 -63.7817 129.489 22.5029 11.6751 -10.8161 -3.18055e-015 3.18055e-015 -1.59028e-015 2.20695e-032 1.59028e-015 -7.95139e-016 2.20695e-032 1.59028e-015 -7.95139e-016 -3.18055e-015 3.18055e-015 -1.59028e-015 0.0129472 0.00230138 -8.87273e-005 -6.36111e-015 3.18055e-015 -1.59028e-015 -3.18055e-015 3.18055e-015 -1.59028e-015 0.0163355 0.0030387 -0.000868213 6.36111e-015 -1.59028e-015 -7.95139e-016 -3.18055e-015 3.18055e-015 -1.59028e-015 0.0145885 0.00368168 -0.00327079 3.18055e-015 -3.18055e-015 -0 -3.18055e-015 3.18055e-015 -1.59028e-015 2.20695e-032 1.59028e-015 -7.95139e-016 2.20695e-032 1.59028e-015 -7.95139e-016 -13.637 -32.949 -11.56 -130.049 84.912 127.952 0.843525 27.1037 -5.52675 1.98785e-016 -1.59028e-015 -3.18055e-015 13.632 -32.9489 11.5547 130.051 84.9121 -127.959 -0.845235 27.1031 5.52339 -9.67118e-007 2.90069e-007 -1.60823e-006 
0.495481 0.567459 67.922 -99.5468 -89.9887 -99.5356 0.295272 2.15083 -0.151037 0.596854 4.30084 -0.313504 0.596855 4.30084 -0.313505 -6.35876e-006 -3.74634 3.3162e-006 1.56873e-007 -6.73759 1.20369e-007 12.6301 -26.26 -21.2232 48.177 -34.2746 79.4438 -159.874 -48.5781 -140.347 -13.1127 15.7664 10.5827 6.36111e-015 -1.59028e-015 1.98785e-016 9.54166e-015 -1.19271e-015 -7.95139e-016 9.54166e-015 -1.19271e-015 -3.97569e-016 6.36111e-015 -1.59028e-015 1.98785e-016 -0.0128203 0.00233795 8.45063e-005 -3.18055e-015 0 -0 6.36111e-015 -1.59028e-015 1.98785e-016 -0.0160393 0.00299087 0.000853104 2.75869e-033 7.95139e-016 -1.98785e-016 6.36111e-015 -1.59028e-015 1.98785e-016 -0.0126034 0.00313358 0.00283682 0 0 -7.95139e-016 6.36111e-015 -1.59028e-015 1.98785e-016 9.54166e-015 -1.19271e-015 -7.95139e-016 9.54166e-015 -1.19271e-015 -3.97569e-016 -13.6399 -26.2145 15.1745 -45.4175 -38.7463 -73.9659 148.335 -64.0365 129.149 23.2809 10.0724 -11.165 1.10348e-032 -7.95139e-016 7.95139e-016 1.10348e-031 -3.97569e-015 1.59028e-015 3.18055e-015 -3.18055e-015 -0 1.10348e-032 -7.95139e-016 7.95139e-016 0.0129686 0.00231699 -8.5981e-005 3.18055e-015 -1.59028e-015 3.97569e-016 1.10348e-032 -7.95139e-016 7.95139e-016 0.016361 0.00304717 -0.000877451 9.93129e-032 -1.43125e-014 3.97569e-016 1.10348e-032 -7.95139e-016 7.95139e-016 0.0145917 0.00367778 -0.0032677 3.18055e-015 -1.59028e-015 1.59028e-015 1.10348e-032 -7.95139e-016 7.95139e-016 1.10348e-031 -3.97569e-015 1.59028e-015 3.18055e-015 -3.18055e-015 -0 -13.6369 -32.949 -11.56 -130.049 84.912 127.952 0.843535 27.1037 -5.52677 -2.5842e-015 0 -3.18055e-015 13.632 -32.9489 11.5547 130.051 84.9121 -127.959 -0.845235 27.1031 5.5234 -8.44245e-007 2.52635e-007 2.73602e-008 
0.495481 0.567459 68.0505 -99.5467 -89.9887 -99.5356 0.295432 2.28147 -0.150582 0.597583 4.56215 -0.313319 0.597583 4.56214 -0.313319 -1.65218e-005 -4.43068 8.36167e-006 -2.71396e-007 -7.42195 6.86302e-008 12.8965 -27.0264 -20.9416 47.8356 -34.4387 79.5368 -159.661 -48.9515 -140.159 -13.8652 14.1757 11.2527 -0 -1.59028e-015 -0 6.36111e-015 -1.59028e-015 9.93923e-016 3.18055e-015 -7.95139e-016 7.95139e-016 -0 -1.59028e-015 -0 -0.0128308 0.00231772 8.8775e-005 6.36111e-015 7.95139e-016 -3.97569e-016 -0 -1.59028e-015 -0 -0.0160523 0.00297924 0.000856918 1.27222e-014 -7.95139e-016 -3.97569e-016 -0 -1.59028e-015 -0 -0.0126036 0.00311829 0.00282615 6.36111e-015 7.95139e-016 1.98785e-016 -0 -1.59028e-015 -0 6.36111e-015 -1.59028e-015 9.93923e-016 3.18055e-015 -7.95139e-016 7.95139e-016 -13.9139 -26.977 14.8867 -45.4478 -38.5424 -73.9629 147.971 -64.2907 128.802 24.0476 8.46076 -11.491 3.18055e-015 7.95139e-016 -0 3.18055e-015 7.95139e-016 3.97569e-016 3.18055e-015 7.95139e-016 3.97569e-016 3.18055e-015 7.95139e-016 -0 0.0129308 0.00231419 -8.49891e-005 -7.1726e-032 -1.03368e-014 -3.97569e-016 3.18055e-015 7.95139e-016 -0 0.0163141 0.00303726 -0.00087763 -3.18055e-015 -1.59028e-015 -7.95139e-016 3.18055e-015 7.95139e-016 -0 0.01459 0.0036913 -0.00325911 6.36111e-015 0 -1.19271e-015 3.18055e-015 7.95139e-016 -0 3.18055e-015 7.95139e-016 3.97569e-016 3.18055e-015 7.95139e-016 3.97569e-016 -13.6369 -32.949 -11.56 -130.049 84.912 127.952 0.843527 27.1037 -5.52677 -8.44277e-007 6.29746e-007 2.74255e-008 13.632 -32.9489 11.5547 130.051 84.9121 -127.959 -0.845239 27.103 5.5234 -1.22874e-007 9.18156e-007 -1.63559e-006 
0.495481 0.567459 68.179 -99.5468 -89.9887 -99.5356 0.295565 2.41225 -0.150117 0.598258 4.82368 -0.313117 0.598257 4.82368 -0.313116 -1.06243e-005 -5.11512 5.38708e-006 1.04446e-007 -8.10656 -1.47443e-007 13.1691 -27.7919 -20.6539 47.4933 -34.6037 79.6285 -159.445 -49.3241 -139.967 -14.5954 12.5731 11.8983 6.085e-006 -5.33852e-006 -3.56348e-007 3.66213e-006 5.6008e-006 7.47741e-006 -2.20695e-032 1.59028e-015 7.95139e-016 6.085e-006 -5.33852e-006 -3.56348e-007 -0.0127997 0.00233318 8.63791e-005 3.04568e-006 1.70654e-006 -2.91306e-007 6.085e-006 -5.33852e-006 -3.56348e-007 -0.0160484 0.00300165 0.000860957 2.83921e-006 1.34911e-006 -2.84312e-006 6.085e-006 -5.33852e-006 -3.56348e-007 -0.0125907 0.00312326 0.00282563 -5.80837e-008 1.61906e-005 -1.3029e-006 6.085e-006 -5.33852e-006 -3.56348e-007 3.66213e-006 5.6008e-006 7.47741e-006 -2.20695e-032 1.59028e-015 7.95139e-016 -14.1941 -27.7386 14.5927 -45.4764 -38.3396 -73.9587 147.599 -64.543 128.449 24.8038 6.84147 -11.7947 1.10348e-032 -7.95139e-016 7.95139e-016 -3.18055e-015 0 -0 -3.18055e-015 0 -0 1.10348e-032 -7.95139e-016 7.95139e-016 0.0129326 0.00231196 -8.47991e-005 9.54166e-015 -2.38542e-015 1.59028e-015 1.10348e-032 -7.95139e-016 7.95139e-016 0.0163131 0.00303477 -0.000866585 -6.47578e-006 -9.87434e-006 -3.08313e-007 1.10348e-032 -7.95139e-016 7.95139e-016 0.0145696 0.00367752 -0.00325743 3.18055e-015 0 -7.95139e-016 1.10348e-032 -7.95139e-016 7.95139e-016 -3.18055e-015 0 -0 -3.18055e-015 0 -0 -13.6369 -32.9491 -11.56 -130.049 84.912 127.952 0.843533 27.1037 -5.52676 3.37934e-015 -7.95139e-016 3.18055e-015 13.632 -32.9489 11.5547 130.051 84.9121 -127.959 -0.845239 27.103 5.5234 -1.22874e-007 9.18156e-007 -1.63559e-006 
